<svg
              className="w-6 h-6"
              fill="currentColor"
              xmlns="http://www.w3.org/2000/svg"
              viewBox="0 0 24 24"
            >
              <path d="M4.459 4.208c0-.164.041-.164.204-.205l2.817-.573c.245 0 .327 0 .491.245l12.391 14.879c.163.204.082.245-.082.286l-2.78.61c-.245 0-.327 0-.49-.204l-5.655-6.814-1.473.982v5.655c0 .164 0 .245-.164.286l-3.002.655c-.163 0-.204-.041-.204-.205zm12.138 4.613l-3.125-.654-3.614 3.287 3.205 3.614 3.573-.653c.164 0 .164-.206.164-.287z" />
            </svg>